<svg version="1.2" baseProfile="tiny-ps" xmlns="http://www.w3.org/2000/svg" viewBox="0 0 172 20" width="172" height="20">
	<title>Home</title>
	<style>
		tspan { white-space:pre }
		.shp0 { fill: #007397 } 
	</style>
	<g id="Home">
		<g id="Header">
			<path id="BUSINESS" fill-rule="evenodd" class="shp0" d="M9.77 0C11.31 0 12.66 0.21 13.82 0.63C14.98 1.04 15.87 1.63 16.49 2.4C17.11 3.16 17.42 4.04 17.42 5.06C17.42 6.04 17.13 6.92 16.54 7.7C15.96 8.48 15.17 9.02 14.17 9.33C15.33 9.6 16.25 10.19 16.95 11.11C17.65 12.03 18 13.12 18 14.39C18 15.51 17.68 16.5 17.03 17.35C16.39 18.21 15.48 18.86 14.32 19.32C13.16 19.77 11.79 20 10.24 20L0 20L0 0L9.77 0ZM7 8L9.71 8C10.1 8 10.41 7.91 10.65 7.72C10.88 7.53 11 7.29 11 6.98C11 6.69 10.88 6.45 10.65 6.27C10.41 6.09 10.1 6 9.71 6L7 6L7 8ZM5 15L8.67 15C9.38 15 9.94 14.85 10.36 14.56C10.79 14.27 11 13.89 11 13.42C11 13 10.79 12.65 10.36 12.39C9.93 12.13 9.36 12 8.67 12L5 12L5 15ZM42 11.37C42 13.1 41.61 14.61 40.84 15.91C40.07 17.22 38.97 18.23 37.55 18.94C36.13 19.65 34.47 20 32.57 20C30.67 20 28.99 19.65 27.54 18.94C26.1 18.23 24.98 17.22 24.19 15.91C23.4 14.61 23 13.1 23 11.37L23 0L29.55 0L29.55 11.37C29.55 12.31 29.85 13.07 30.44 13.67C31.03 14.27 31.75 14.57 32.6 14.57C33.42 14.57 34.11 14.28 34.64 13.7C35.18 13.12 35.45 12.34 35.45 11.37L35.45 0L42 0L42 11.37ZM57.57 0C59.08 0 60.58 0.21 62.09 0.63C63.59 1.04 64.89 1.61 66 2.31L63.68 7.21C62.59 6.61 61.41 6.08 60.12 5.62C58.84 5.16 57.81 4.93 57.01 4.93C56.22 4.93 55.83 5.2 55.83 5.74C55.83 6.15 56.08 6.47 56.57 6.7C57.07 6.93 57.86 7.19 58.94 7.47C60.35 7.84 61.5 8.22 62.42 8.61C63.33 9 64.13 9.61 64.82 10.44C65.51 11.26 65.85 12.36 65.85 13.74C65.85 15.14 65.49 16.3 64.77 17.24C64.04 18.17 63.06 18.87 61.82 19.32C60.59 19.77 59.21 20 57.7 20C55.99 20 54.27 19.73 52.53 19.18C50.79 18.64 49.28 17.87 48 16.88L50.39 12.04C51.37 12.86 52.59 13.57 54.07 14.17C55.54 14.77 56.77 15.07 57.76 15.07C58.79 15.07 59.31 14.74 59.31 14.07C59.31 13.64 59.05 13.31 58.54 13.08C58.04 12.85 57.22 12.59 56.1 12.31C54.73 11.98 53.59 11.62 52.67 11.25C51.75 10.88 50.96 10.3 50.29 9.51C49.62 8.72 49.28 7.67 49.28 6.35C49.28 5.07 49.62 3.96 50.3 3C50.98 2.04 51.95 1.3 53.2 0.78C54.46 0.26 55.91 0 57.57 0ZM71 20L71 0L78 0L78 20L71 20ZM97.59 20L89.9 9.79L89.9 20L84 20L84 0L89.42 0L97.14 10.28L97.14 0L103 0L103 20L97.59 20ZM116.56 5.03L116.56 7.48L125.81 7.48L125.81 12.49L116.56 12.49L116.56 14.99L127 14.99L127 20L110 20L110 0L126.75 0L126.75 5.03L116.56 5.03ZM140.57 0C142.08 0 143.58 0.21 145.09 0.63C146.59 1.04 147.89 1.61 149 2.31L146.68 7.21C145.59 6.61 144.41 6.08 143.12 5.62C141.84 5.16 140.81 4.93 140.01 4.93C139.22 4.93 138.83 5.2 138.83 5.74C138.83 6.15 139.08 6.47 139.57 6.7C140.07 6.93 140.86 7.19 141.94 7.47C143.35 7.84 144.5 8.22 145.42 8.61C146.33 9 147.13 9.61 147.82 10.44C148.51 11.26 148.85 12.36 148.85 13.74C148.85 15.14 148.49 16.3 147.77 17.24C147.04 18.17 146.06 18.87 144.82 19.32C143.59 19.77 142.21 20 140.7 20C138.99 20 137.27 19.73 135.53 19.18C133.79 18.64 132.28 17.87 131 16.88L133.39 12.04C134.37 12.86 135.59 13.57 137.07 14.17C138.54 14.77 139.77 15.07 140.76 15.07C141.79 15.07 142.31 14.74 142.31 14.07C142.31 13.64 142.05 13.31 141.54 13.08C141.04 12.85 140.22 12.59 139.1 12.31C137.73 11.98 136.59 11.62 135.67 11.25C134.75 10.88 133.96 10.3 133.29 9.51C132.62 8.72 132.28 7.67 132.28 6.35C132.28 5.07 132.62 3.96 133.3 3C133.98 2.04 134.95 1.3 136.2 0.78C137.46 0.26 138.91 0 140.57 0ZM163.57 0C165.08 0 166.58 0.21 168.09 0.63C169.59 1.04 170.89 1.61 172 2.31L169.68 7.21C168.59 6.61 167.41 6.08 166.12 5.62C164.84 5.16 163.81 4.93 163.01 4.93C162.22 4.93 161.83 5.2 161.83 5.74C161.83 6.15 162.08 6.47 162.57 6.7C163.07 6.93 163.86 7.19 164.94 7.47C166.35 7.84 167.5 8.22 168.42 8.61C169.33 9 170.13 9.61 170.82 10.44C171.51 11.26 171.85 12.36 171.85 13.74C171.85 15.14 171.49 16.3 170.77 17.24C170.04 18.17 169.06 18.87 167.82 19.32C166.59 19.77 165.21 20 163.7 20C161.99 20 160.27 19.73 158.53 19.18C156.79 18.64 155.28 17.87 154 16.88L156.39 12.04C157.37 12.86 158.59 13.57 160.07 14.17C161.54 14.77 162.77 15.07 163.76 15.07C164.79 15.07 165.31 14.74 165.31 14.07C165.31 13.64 165.05 13.31 164.54 13.08C164.04 12.85 163.22 12.59 162.1 12.31C160.73 11.98 159.59 11.62 158.67 11.25C157.75 10.88 156.96 10.3 156.29 9.51C155.62 8.72 155.28 7.67 155.28 6.35C155.28 5.07 155.62 3.96 156.3 3C156.98 2.04 157.95 1.3 159.2 0.78C160.46 0.26 161.91 0 163.57 0Z" />
		</g>
	</g>
</svg>